<svg width="20" height="20" viewBox="0 0 20 20" fill="none" xmlns="http://www.w3.org/2000/svg">
<path d="M15.2637 7.93083C16.1016 7.25509 16.8349 6.45895 17.4395 5.56833C14.8052 5.6103 12.1875 5.99406 9.65202 6.71C7.13233 7.48027 4.72331 8.57442 2.48535 9.965C3.47587 10.3864 4.52335 10.6588 5.59368 10.7733M7.47202 6.22417C7.64537 4.76171 7.89852 3.30982 8.23035 1.875C8.23035 1.875 9.17285 2.46208 10.2908 4.19708" stroke="#459A56" stroke-width="0.416667" stroke-linecap="round" stroke-linejoin="round"/>
<path d="M11.0452 14.7682C10.1953 16.0492 9.14217 17.1829 7.92729 18.1249C7.42845 15.3614 7.18756 12.5575 7.20771 9.74946C7.21604 9.38821 7.23104 9.03029 7.25104 8.67779M12.5194 7.67529C14.4139 9.91823 16.087 12.3392 17.5152 14.9045C15.088 14.5488 12.7282 13.8297 10.5152 12.7711" stroke="#459A56" stroke-width="0.416667" stroke-linecap="round" stroke-linejoin="round"/>
</svg>
