<svg width="20" height="20" viewBox="0 0 20 20" fill="none" xmlns="http://www.w3.org/2000/svg">
<path d="M12.6125 10.4165C12.5125 10.4165 12.4083 10.3998 12.3083 10.3665C12.1205 10.3067 11.9568 10.1882 11.8413 10.0285C11.7258 9.86871 11.6646 9.67612 11.6667 9.479V8.30817C10.725 8.15817 10 7.33734 10 6.354V3.64567C10 2.554 10.8875 1.6665 11.9792 1.6665H16.7708C17.8625 1.6665 18.75 2.554 18.75 3.64567V6.354C18.75 7.44567 17.8625 8.33317 16.7708 8.33317H14.6375L13.3542 10.0415C13.1708 10.2832 12.9 10.4165 12.6125 10.4165ZM11.9792 2.70817C11.4625 2.70817 11.0417 3.129 11.0417 3.64567V6.354C11.0417 6.87067 11.4625 7.2915 11.9792 7.2915H12.7083V9.1665L14.1167 7.2915H16.775C17.2917 7.2915 17.7125 6.87067 17.7125 6.354V3.64567C17.7125 3.129 17.2917 2.70817 16.775 2.70817H11.9792ZM6.66667 11.4582C4.94167 11.4582 3.54167 10.0582 3.54167 8.33317C3.54167 6.60817 4.94167 5.20817 6.66667 5.20817C8.39167 5.20817 9.79167 6.60817 9.79167 8.33317C9.79167 10.0582 8.39167 11.4582 6.66667 11.4582ZM6.66667 6.24984C5.51667 6.24984 4.58333 7.18317 4.58333 8.33317C4.58333 9.48317 5.51667 10.4165 6.66667 10.4165C7.81667 10.4165 8.75 9.48317 8.75 8.33317C8.75 7.18317 7.81667 6.24984 6.66667 6.24984ZM1.25 14.4957C1.25 14.5332 1.3125 18.3332 6.66667 18.3332C12.0208 18.3332 12.0833 14.5332 12.0833 14.4957V14.0623C12.0833 13.1998 11.3833 12.4998 10.5208 12.4998H2.8125C1.95 12.4998 1.25 13.1998 1.25 14.0623V14.4957ZM2.29167 14.0623C2.29167 13.7748 2.525 13.5415 2.8125 13.5415H10.5208C10.8083 13.5415 11.0417 13.7748 11.0417 14.0623V14.4915C11.0417 14.604 10.95 17.2915 6.66667 17.2915C2.38333 17.2915 2.29167 14.604 2.29167 14.4957V14.0623Z" fill="#F29406"/>
</svg>
