<svg width="20" height="20" viewBox="0 0 20 20" fill="none" xmlns="http://www.w3.org/2000/svg">
<path d="M2.5 13.75V16.25C2.5 16.5815 2.6317 16.8995 2.86612 17.1339C3.10054 17.3683 3.41848 17.5 3.75 17.5H6.25M13.75 17.5H16.25C16.5815 17.5 16.8995 17.3683 17.1339 17.1339C17.3683 16.8995 17.5 16.5815 17.5 16.25V13.75M17.5 6.25V3.75C17.5 3.41848 17.3683 3.10054 17.1339 2.86612C16.8995 2.6317 16.5815 2.5 16.25 2.5H13.75M2.5 6.25V3.75C2.5 3.41848 2.6317 3.10054 2.86612 2.86612C3.10054 2.6317 3.41848 2.5 3.75 2.5H6.25M14.1667 10L10 14.1667L5.83333 10C5.41667 9.58333 5.20833 8.75 5.83333 7.91667C6.45833 7.08333 7.70833 7.08333 8.33333 7.5C8.95833 7.91667 9.16667 8.33333 10 8.33333C10.8333 8.33333 11.0417 7.91667 11.6667 7.5C12.2917 7.08333 13.5417 7.08333 14.1667 7.91667C14.7917 8.75 14.5833 9.58333 14.1667 10Z" fill="white"/>
<path d="M2.5 13.75V16.25C2.5 16.5815 2.6317 16.8995 2.86612 17.1339C3.10054 17.3683 3.41848 17.5 3.75 17.5H6.25M13.75 17.5H16.25C16.5815 17.5 16.8995 17.3683 17.1339 17.1339C17.3683 16.8995 17.5 16.5815 17.5 16.25V13.75M17.5 6.25V3.75C17.5 3.41848 17.3683 3.10054 17.1339 2.86612C16.8995 2.6317 16.5815 2.5 16.25 2.5H13.75M2.5 6.25V3.75C2.5 3.41848 2.6317 3.10054 2.86612 2.86612C3.10054 2.6317 3.41848 2.5 3.75 2.5H6.25M14.1667 10L10 14.1667L5.83333 10C5.41667 9.58333 5.20833 8.75 5.83333 7.91667C6.45833 7.08333 7.70833 7.08333 8.33333 7.5C8.95833 7.91667 9.16667 8.33333 10 8.33333C10.8333 8.33333 11.0417 7.91667 11.6667 7.5C12.2917 7.08333 13.5417 7.08333 14.1667 7.91667C14.7917 8.75 14.5833 9.58333 14.1667 10Z" stroke="#F29406" stroke-width="1.66667" stroke-linecap="round" stroke-linejoin="round"/>
</svg>
