<svg width="16" height="16" viewBox="0 0 16 16" fill="none" xmlns="http://www.w3.org/2000/svg">
<path d="M7.99968 4.66683C7.82287 4.66683 7.6533 4.73707 7.52827 4.86209C7.40325 4.98712 7.33301 5.15669 7.33301 5.3335V8.00016C7.33301 8.17697 7.40325 8.34654 7.52827 8.47157C7.6533 8.59659 7.82287 8.66683 7.99968 8.66683C8.17649 8.66683 8.34606 8.59659 8.47108 8.47157C8.59611 8.34654 8.66634 8.17697 8.66634 8.00016V5.3335C8.66634 5.15669 8.59611 4.98712 8.47108 4.86209C8.34606 4.73707 8.17649 4.66683 7.99968 4.66683ZM8.61301 10.4135C8.59842 10.371 8.57824 10.3307 8.55301 10.2935L8.47301 10.1935C8.37926 10.101 8.26021 10.0383 8.13089 10.0134C8.00156 9.98849 7.86775 10.0024 7.74634 10.0535C7.66555 10.0873 7.59115 10.1346 7.52634 10.1935C7.46456 10.2558 7.41567 10.3297 7.3825 10.4109C7.34932 10.4921 7.3325 10.5791 7.33301 10.6668C7.33406 10.7539 7.35218 10.84 7.38634 10.9202C7.41629 11.0029 7.46406 11.078 7.52627 11.1402C7.58848 11.2025 7.66361 11.2502 7.74634 11.2802C7.82614 11.3154 7.91243 11.3337 7.99968 11.3337C8.08693 11.3337 8.17321 11.3154 8.25301 11.2802C8.33574 11.2502 8.41087 11.2025 8.47309 11.1402C8.5353 11.078 8.58307 11.0029 8.61301 10.9202C8.64717 10.84 8.66529 10.7539 8.66634 10.6668C8.66962 10.6224 8.66962 10.5779 8.66634 10.5335C8.65487 10.491 8.63688 10.4505 8.61301 10.4135ZM7.99968 1.3335C6.68114 1.3335 5.3922 1.72449 4.29588 2.45703C3.19955 3.18957 2.34506 4.23077 1.84048 5.44894C1.3359 6.66711 1.20387 8.00756 1.46111 9.30077C1.71834 10.594 2.35328 11.7819 3.28563 12.7142C4.21798 13.6466 5.40587 14.2815 6.69908 14.5387C7.99228 14.796 9.33273 14.6639 10.5509 14.1594C11.7691 13.6548 12.8103 12.8003 13.5428 11.704C14.2754 10.6076 14.6663 9.31871 14.6663 8.00016C14.6663 7.12468 14.4939 6.25778 14.1589 5.44894C13.8238 4.6401 13.3328 3.90517 12.7137 3.28612C12.0947 2.66706 11.3597 2.176 10.5509 1.84097C9.74206 1.50593 8.87516 1.3335 7.99968 1.3335ZM7.99968 13.3335C6.94484 13.3335 5.9137 13.0207 5.03664 12.4347C4.15957 11.8486 3.47599 11.0157 3.07232 10.0411C2.66865 9.0666 2.56304 7.99425 2.76882 6.95968C2.97461 5.92512 3.48256 4.97481 4.22844 4.22893C4.97432 3.48305 5.92463 2.9751 6.9592 2.76931C7.99376 2.56352 9.06612 2.66914 10.0407 3.07281C11.0152 3.47647 11.8481 4.16006 12.4342 5.03712C13.0202 5.91418 13.333 6.94533 13.333 8.00016C13.333 9.41465 12.7711 10.7712 11.7709 11.7714C10.7707 12.7716 9.41417 13.3335 7.99968 13.3335Z" fill="#787878"/>
</svg>
