<svg width="21" height="20" viewBox="0 0 21 20" fill="none" xmlns="http://www.w3.org/2000/svg">
<path d="M16.75 3.28125H4.25C3.79416 3.28125 3.35699 3.46233 3.03466 3.78466C2.71233 4.10699 2.53125 4.54416 2.53125 5V13.75C2.53125 14.2058 2.71233 14.643 3.03466 14.9653C3.35699 15.2877 3.79416 15.4688 4.25 15.4688H16.75C17.2058 15.4688 17.643 15.2877 17.9653 14.9653C18.2877 14.643 18.4688 14.2058 18.4688 13.75V5C18.4688 4.54416 18.2877 4.10699 17.9653 3.78466C17.643 3.46233 17.2058 3.28125 16.75 3.28125ZM17.5312 13.75C17.5312 13.9572 17.4489 14.1559 17.3024 14.3024C17.1559 14.4489 16.9572 14.5312 16.75 14.5312H4.25C4.0428 14.5312 3.84409 14.4489 3.69757 14.3024C3.55106 14.1559 3.46875 13.9572 3.46875 13.75V5C3.46875 4.7928 3.55106 4.59409 3.69757 4.44757C3.84409 4.30106 4.0428 4.21875 4.25 4.21875H16.75C16.9572 4.21875 17.1559 4.30106 17.3024 4.44757C17.4489 4.59409 17.5312 4.7928 17.5312 5V13.75ZM13.4688 17.5C13.4688 17.6243 13.4194 17.7435 13.3315 17.8315C13.2435 17.9194 13.1243 17.9688 13 17.9688H8C7.87568 17.9688 7.75645 17.9194 7.66854 17.8315C7.58064 17.7435 7.53125 17.6243 7.53125 17.5C7.53125 17.3757 7.58064 17.2565 7.66854 17.1685C7.75645 17.0806 7.87568 17.0312 8 17.0312H13C13.1243 17.0312 13.2435 17.0806 13.3315 17.1685C13.4194 17.2565 13.4688 17.3757 13.4688 17.5Z" fill="#F29406"/>
</svg>
