<svg width="20" height="20" viewBox="0 0 20 20" fill="none" xmlns="http://www.w3.org/2000/svg">
<g clip-path="url(#clip0_1362_2717)">
<path d="M18.4222 10.6279L10.8778 3.08348C10.7774 2.98484 10.6584 2.90706 10.5278 2.85462C10.3971 2.80218 10.2574 2.77611 10.1167 2.77792H8.95557L17.6389 11.3613L11.7889 17.2613C11.8885 17.3609 12.0067 17.4399 12.1368 17.4938C12.2669 17.5477 12.4064 17.5755 12.5472 17.5755C12.6881 17.5755 12.8275 17.5477 12.9577 17.4938C13.0878 17.4399 13.206 17.3609 13.3056 17.2613L18.4222 12.1446C18.5218 12.045 18.6009 11.9268 18.6548 11.7967C18.7087 11.6666 18.7364 11.5271 18.7364 11.3863C18.7364 11.2454 18.7087 11.1059 18.6548 10.9758C18.6009 10.8457 18.5218 10.7275 18.4222 10.6279Z" fill="#459A56"/>
<path d="M4.33899 6.92797C4.74706 6.92797 5.07788 6.59716 5.07788 6.18908C5.07788 5.78101 4.74706 5.4502 4.33899 5.4502C3.93091 5.4502 3.6001 5.78101 3.6001 6.18908C3.6001 6.59716 3.93091 6.92797 4.33899 6.92797Z" fill="#459A56"/>
<path d="M15.4331 10.6501L7.88866 3.10005C7.78961 2.99841 7.67128 2.91756 7.54058 2.86223C7.40989 2.8069 7.26947 2.77821 7.12755 2.77783H2.00533C1.72096 2.77783 1.44823 2.8908 1.24715 3.09188C1.04607 3.29296 0.933105 3.56568 0.933105 3.85005V8.97228C0.93349 9.11287 0.961666 9.252 1.01601 9.38167C1.07036 9.51133 1.1498 9.62898 1.24977 9.72783L8.79977 17.2778C8.89934 17.3774 9.01756 17.4565 9.14768 17.5104C9.2778 17.5643 9.41726 17.592 9.55811 17.592C9.69895 17.592 9.83841 17.5643 9.96853 17.5104C10.0986 17.4565 10.2169 17.3774 10.3164 17.2778L15.4331 12.1612C15.6326 11.9603 15.7445 11.6887 15.7445 11.4056C15.7445 11.1225 15.6326 10.8509 15.4331 10.6501ZM9.58866 16.4945L2.04977 8.97228V3.88894H7.10533L14.6498 11.3778L9.58866 16.4945Z" fill="#459A56"/>
</g>
<defs>
<clipPath id="clip0_1362_2717">
<rect width="20" height="20" fill="white"/>
</clipPath>
</defs>
</svg>
