<svg width="25" height="24" viewBox="0 0 25 24" fill="none" xmlns="http://www.w3.org/2000/svg">
<path d="M18.9196 8.2199C18.3086 6.8159 17.2541 5.65097 15.9177 4.90362C14.5813 4.15627 13.0367 3.86773 11.5206 4.0822C10.0045 4.29668 8.60057 5.00235 7.5239 6.09107C6.44723 7.17979 5.75723 8.59151 5.55965 10.1099C4.60623 10.3382 3.76987 10.9087 3.20938 11.7131C2.6489 12.5174 2.40333 13.4996 2.51931 14.4731C2.63529 15.4466 3.10474 16.3436 3.83851 16.9938C4.57229 17.6439 5.51928 18.002 6.49965 17.9999C6.76486 17.9999 7.01922 17.8945 7.20675 17.707C7.39429 17.5195 7.49965 17.2651 7.49965 16.9999C7.49965 16.7347 7.39429 16.4803 7.20675 16.2928C7.01922 16.1053 6.76486 15.9999 6.49965 15.9999C5.96921 15.9999 5.46051 15.7892 5.08543 15.4141C4.71036 15.039 4.49965 14.5303 4.49965 13.9999C4.49965 13.4695 4.71036 12.9608 5.08543 12.5857C5.46051 12.2106 5.96921 11.9999 6.49965 11.9999C6.76486 11.9999 7.01922 11.8945 7.20675 11.707C7.39429 11.5195 7.49965 11.2651 7.49965 10.9999C7.5022 9.81717 7.92393 8.67365 8.68992 7.77248C9.4559 6.87131 10.5165 6.27085 11.6834 6.07777C12.8503 5.88469 14.0478 6.1115 15.0632 6.7179C16.0787 7.32431 16.8463 8.27104 17.2296 9.3899C17.2868 9.56174 17.3896 9.71483 17.5269 9.83283C17.6643 9.95083 17.8312 10.0293 18.0096 10.0599C18.6757 10.1858 19.2795 10.5335 19.7227 11.0464C20.1658 11.5594 20.4222 12.2073 20.45 12.8845C20.4779 13.5618 20.2755 14.2286 19.8759 14.7761C19.4764 15.3237 18.9031 15.7198 18.2496 15.8999C17.9924 15.9662 17.772 16.132 17.637 16.3608C17.5019 16.5896 17.4633 16.8626 17.5296 17.1199C17.596 17.3772 17.7617 17.5975 17.9905 17.7326C18.2193 17.8676 18.4924 17.9062 18.7496 17.8399C19.802 17.5618 20.7349 16.9479 21.4067 16.0914C22.0784 15.2348 22.4522 14.1825 22.4715 13.0942C22.4907 12.0058 22.1543 10.9409 21.5132 10.0612C20.8722 9.18149 19.9616 8.53499 18.9196 8.2199ZM13.2096 10.2899C13.1145 10.1989 13.0024 10.1275 12.8796 10.0799C12.6362 9.97988 12.3631 9.97988 12.1196 10.0799C11.9969 10.1275 11.8847 10.1989 11.7896 10.2899L8.78965 13.2899C8.60134 13.4782 8.49555 13.7336 8.49555 13.9999C8.49555 14.2662 8.60134 14.5216 8.78965 14.7099C8.97795 14.8982 9.23334 15.004 9.49965 15.004C9.76595 15.004 10.0213 14.8982 10.2096 14.7099L11.4996 13.4099V18.9999C11.4996 19.2651 11.605 19.5195 11.7925 19.707C11.9801 19.8945 12.2344 19.9999 12.4996 19.9999C12.7649 19.9999 13.0192 19.8945 13.2068 19.707C13.3943 19.5195 13.4996 19.2651 13.4996 18.9999V13.4099L14.7896 14.7099C14.8826 14.8036 14.9932 14.878 15.1151 14.9288C15.2369 14.9796 15.3676 15.0057 15.4996 15.0057C15.6317 15.0057 15.7624 14.9796 15.8842 14.9288C16.0061 14.878 16.1167 14.8036 16.2096 14.7099C16.3034 14.6169 16.3778 14.5063 16.4285 14.3845C16.4793 14.2626 16.5054 14.1319 16.5054 13.9999C16.5054 13.8679 16.4793 13.7372 16.4285 13.6153C16.3778 13.4935 16.3034 13.3829 16.2096 13.2899L13.2096 10.2899Z" fill="#FAF9F8"/>
</svg>
