<svg width="21" height="20" viewBox="0 0 21 20" fill="none" xmlns="http://www.w3.org/2000/svg">
<path d="M14.6665 7.50146C16.479 7.51146 17.4607 7.5923 18.1007 8.2323C18.8332 8.9648 18.8332 10.1431 18.8332 12.4998V13.3331C18.8332 15.6906 18.8332 16.869 18.1007 17.6015C17.369 18.3331 16.1898 18.3331 13.8332 18.3331H7.1665C4.80984 18.3331 3.63067 18.3331 2.899 17.6015C2.1665 16.8681 2.1665 15.6906 2.1665 13.3331V12.4998C2.1665 10.1431 2.1665 8.9648 2.899 8.2323C3.539 7.5923 4.52067 7.51146 6.33317 7.50146" stroke="#F29406" stroke-width="1.25" stroke-linecap="round"/>
<path d="M10.5 12.4998V1.6665M10.5 1.6665L13 4.58317M10.5 1.6665L8 4.58317" stroke="#F29406" stroke-width="1.25" stroke-linecap="round" stroke-linejoin="round"/>
</svg>
